<?xml version="1.0" standalone="no"?><svg xmlns="http://www.w3.org/2000/svg" viewBox="0 0 1440 320"><path fill="#ffffff" fill-opacity="1" d="M0,96L26.7,85.3C53.3,75,107,53,160,42.7C213.3,32,267,32,320,64C373.3,96,427,160,480,197.3C533.3,235,587,245,640,245.3C693.3,245,747,235,800,202.7C853.3,171,907,117,960,112C1013.3,107,1067,149,1120,192C1173.3,235,1227,277,1280,293.3C1333.3,309,1387,299,1413,293.3L1440,288L1440,0L1413.3,0C1386.7,0,1333,0,1280,0C1226.7,0,1173,0,1120,0C1066.7,0,1013,0,960,0C906.7,0,853,0,800,0C746.7,0,693,0,640,0C586.7,0,533,0,480,0C426.7,0,373,0,320,0C266.7,0,213,0,160,0C106.7,0,53,0,27,0L0,0Z"></path></svg>